<svg xmlns="http://www.w3.org/2000/svg" xmlns:xlink="http://www.w3.org/1999/xlink" width="500" zoomAndPan="magnify" viewBox="0 0 375 374.999991" height="500" preserveAspectRatio="xMidYMid meet" version="1.0"><defs><g/><clipPath id="11bbaaebc5"><path d="M 135 68 L 366.253906 68 L 366.253906 232 L 135 232 Z M 135 68 " clip-rule="nonzero"/></clipPath><clipPath id="04b7e33453"><path d="M 8.503906 68 L 324 68 L 324 279.445312 L 8.503906 279.445312 Z M 8.503906 68 " clip-rule="nonzero"/></clipPath></defs><g fill="#00eeff" fill-opacity="1"><g transform="translate(8.50268, 300.492044)"><g><path d="M 11.90625 -2.953125 L 5.65625 -2.953125 L 4.65625 0 L 0.375 0 L 6.4375 -16.75 L 11.171875 -16.75 L 17.21875 0 L 12.90625 0 Z M 10.859375 -6.109375 L 8.78125 -12.234375 L 6.734375 -6.109375 Z M 10.859375 -6.109375 "/></g></g></g><g fill="#00eeff" fill-opacity="1"><g transform="translate(26.0852, 300.492044)"><g><path d="M 11.625 -8.59375 C 12.59375 -8.382812 13.367188 -7.898438 13.953125 -7.140625 C 14.546875 -6.390625 14.84375 -5.53125 14.84375 -4.5625 C 14.84375 -3.15625 14.351562 -2.039062 13.375 -1.21875 C 12.394531 -0.40625 11.03125 0 9.28125 0 L 1.484375 0 L 1.484375 -16.75 L 9.015625 -16.75 C 10.722656 -16.75 12.054688 -16.359375 13.015625 -15.578125 C 13.972656 -14.796875 14.453125 -13.738281 14.453125 -12.40625 C 14.453125 -11.414062 14.191406 -10.59375 13.671875 -9.9375 C 13.160156 -9.289062 12.476562 -8.84375 11.625 -8.59375 Z M 5.5625 -9.96875 L 8.234375 -9.96875 C 8.898438 -9.96875 9.410156 -10.113281 9.765625 -10.40625 C 10.128906 -10.707031 10.3125 -11.144531 10.3125 -11.71875 C 10.3125 -12.289062 10.128906 -12.726562 9.765625 -13.03125 C 9.410156 -13.332031 8.898438 -13.484375 8.234375 -13.484375 L 5.5625 -13.484375 Z M 8.5625 -3.296875 C 9.25 -3.296875 9.78125 -3.445312 10.15625 -3.75 C 10.53125 -4.0625 10.71875 -4.515625 10.71875 -5.109375 C 10.71875 -5.691406 10.519531 -6.148438 10.125 -6.484375 C 9.738281 -6.816406 9.203125 -6.984375 8.515625 -6.984375 L 5.5625 -6.984375 L 5.5625 -3.296875 Z M 8.5625 -3.296875 "/></g></g></g><g fill="#00eeff" fill-opacity="1"><g transform="translate(41.806898, 300.492044)"><g><path d="M 5.484375 -16.75 L 5.484375 -6.734375 C 5.484375 -5.722656 5.726562 -4.945312 6.21875 -4.40625 C 6.71875 -3.875 7.445312 -3.609375 8.40625 -3.609375 C 9.351562 -3.609375 10.082031 -3.875 10.59375 -4.40625 C 11.101562 -4.945312 11.359375 -5.722656 11.359375 -6.734375 L 11.359375 -16.75 L 15.4375 -16.75 L 15.4375 -6.75 C 15.4375 -5.257812 15.117188 -3.992188 14.484375 -2.953125 C 13.847656 -1.921875 12.992188 -1.140625 11.921875 -0.609375 C 10.847656 -0.0859375 9.648438 0.171875 8.328125 0.171875 C 7.003906 0.171875 5.820312 -0.0859375 4.78125 -0.609375 C 3.738281 -1.128906 2.914062 -1.910156 2.3125 -2.953125 C 1.707031 -3.992188 1.40625 -5.257812 1.40625 -6.75 L 1.40625 -16.75 Z M 5.484375 -16.75 "/></g></g></g><g fill="#00eeff" fill-opacity="1"><g transform="translate(58.625998, 300.492044)"><g/></g></g><g fill="#00eeff" fill-opacity="1"><g transform="translate(63.68365, 300.492044)"><g><path d="M 10.015625 0 L 6.53125 -6.328125 L 5.5625 -6.328125 L 5.5625 0 L 1.484375 0 L 1.484375 -16.75 L 8.328125 -16.75 C 9.648438 -16.75 10.773438 -16.515625 11.703125 -16.046875 C 12.628906 -15.585938 13.320312 -14.957031 13.78125 -14.15625 C 14.25 -13.351562 14.484375 -12.457031 14.484375 -11.46875 C 14.484375 -10.363281 14.164062 -9.375 13.53125 -8.5 C 12.90625 -7.625 11.984375 -7.003906 10.765625 -6.640625 L 14.625 0 Z M 5.5625 -9.203125 L 8.09375 -9.203125 C 8.832031 -9.203125 9.390625 -9.382812 9.765625 -9.75 C 10.140625 -10.125 10.328125 -10.644531 10.328125 -11.3125 C 10.328125 -11.945312 10.140625 -12.445312 9.765625 -12.8125 C 9.390625 -13.175781 8.832031 -13.359375 8.09375 -13.359375 L 5.5625 -13.359375 Z M 5.5625 -9.203125 "/></g></g></g><g fill="#00eeff" fill-opacity="1"><g transform="translate(79.238357, 300.492044)"><g><path d="M 5.484375 -16.75 L 5.484375 -6.734375 C 5.484375 -5.722656 5.726562 -4.945312 6.21875 -4.40625 C 6.71875 -3.875 7.445312 -3.609375 8.40625 -3.609375 C 9.351562 -3.609375 10.082031 -3.875 10.59375 -4.40625 C 11.101562 -4.945312 11.359375 -5.722656 11.359375 -6.734375 L 11.359375 -16.75 L 15.4375 -16.75 L 15.4375 -6.75 C 15.4375 -5.257812 15.117188 -3.992188 14.484375 -2.953125 C 13.847656 -1.921875 12.992188 -1.140625 11.921875 -0.609375 C 10.847656 -0.0859375 9.648438 0.171875 8.328125 0.171875 C 7.003906 0.171875 5.820312 -0.0859375 4.78125 -0.609375 C 3.738281 -1.128906 2.914062 -1.910156 2.3125 -2.953125 C 1.707031 -3.992188 1.40625 -5.257812 1.40625 -6.75 L 1.40625 -16.75 Z M 5.484375 -16.75 "/></g></g></g><g fill="#00eeff" fill-opacity="1"><g transform="translate(96.057456, 300.492044)"><g><path d="M 11.625 -8.59375 C 12.59375 -8.382812 13.367188 -7.898438 13.953125 -7.140625 C 14.546875 -6.390625 14.84375 -5.53125 14.84375 -4.5625 C 14.84375 -3.15625 14.351562 -2.039062 13.375 -1.21875 C 12.394531 -0.40625 11.03125 0 9.28125 0 L 1.484375 0 L 1.484375 -16.75 L 9.015625 -16.75 C 10.722656 -16.75 12.054688 -16.359375 13.015625 -15.578125 C 13.972656 -14.796875 14.453125 -13.738281 14.453125 -12.40625 C 14.453125 -11.414062 14.191406 -10.59375 13.671875 -9.9375 C 13.160156 -9.289062 12.476562 -8.84375 11.625 -8.59375 Z M 5.5625 -9.96875 L 8.234375 -9.96875 C 8.898438 -9.96875 9.410156 -10.113281 9.765625 -10.40625 C 10.128906 -10.707031 10.3125 -11.144531 10.3125 -11.71875 C 10.3125 -12.289062 10.128906 -12.726562 9.765625 -13.03125 C 9.410156 -13.332031 8.898438 -13.484375 8.234375 -13.484375 L 5.5625 -13.484375 Z M 8.5625 -3.296875 C 9.25 -3.296875 9.78125 -3.445312 10.15625 -3.75 C 10.53125 -4.0625 10.71875 -4.515625 10.71875 -5.109375 C 10.71875 -5.691406 10.519531 -6.148438 10.125 -6.484375 C 9.738281 -6.816406 9.203125 -6.984375 8.515625 -6.984375 L 5.5625 -6.984375 L 5.5625 -3.296875 Z M 8.5625 -3.296875 "/></g></g></g><g fill="#00eeff" fill-opacity="1"><g transform="translate(111.779154, 300.492044)"><g><path d="M 11.90625 -2.953125 L 5.65625 -2.953125 L 4.65625 0 L 0.375 0 L 6.4375 -16.75 L 11.171875 -16.75 L 17.21875 0 L 12.90625 0 Z M 10.859375 -6.109375 L 8.78125 -12.234375 L 6.734375 -6.109375 Z M 10.859375 -6.109375 "/></g></g></g><g fill="#00eeff" fill-opacity="1"><g transform="translate(129.361674, 300.492044)"><g><path d="M 15.84375 -16.75 L 10.046875 -5.53125 L 10.046875 0 L 5.96875 0 L 5.96875 -5.53125 L 0.171875 -16.75 L 4.796875 -16.75 L 8.046875 -9.734375 L 11.265625 -16.75 Z M 15.84375 -16.75 "/></g></g></g><g fill="#00eeff" fill-opacity="1"><g transform="translate(145.369665, 300.492044)"><g><path d="M 11.90625 -2.953125 L 5.65625 -2.953125 L 4.65625 0 L 0.375 0 L 6.4375 -16.75 L 11.171875 -16.75 L 17.21875 0 L 12.90625 0 Z M 10.859375 -6.109375 L 8.78125 -12.234375 L 6.734375 -6.109375 Z M 10.859375 -6.109375 "/></g></g></g><g fill="#00eeff" fill-opacity="1"><g transform="translate(162.952185, 300.492044)"><g><path d="M 13.53125 -16.75 L 13.53125 -13.484375 L 9.09375 -13.484375 L 9.09375 0 L 5.015625 0 L 5.015625 -13.484375 L 0.578125 -13.484375 L 0.578125 -16.75 Z M 13.53125 -16.75 "/></g></g></g><g fill="#00eeff" fill-opacity="1"><g transform="translate(177.05161, 300.492044)"><g/></g></g><g fill="#00eeff" fill-opacity="1"><g transform="translate(182.109262, 300.492044)"><g><path d="M 10.015625 0 L 6.53125 -6.328125 L 5.5625 -6.328125 L 5.5625 0 L 1.484375 0 L 1.484375 -16.75 L 8.328125 -16.75 C 9.648438 -16.75 10.773438 -16.515625 11.703125 -16.046875 C 12.628906 -15.585938 13.320312 -14.957031 13.78125 -14.15625 C 14.25 -13.351562 14.484375 -12.457031 14.484375 -11.46875 C 14.484375 -10.363281 14.164062 -9.375 13.53125 -8.5 C 12.90625 -7.625 11.984375 -7.003906 10.765625 -6.640625 L 14.625 0 Z M 5.5625 -9.203125 L 8.09375 -9.203125 C 8.832031 -9.203125 9.390625 -9.382812 9.765625 -9.75 C 10.140625 -10.125 10.328125 -10.644531 10.328125 -11.3125 C 10.328125 -11.945312 10.140625 -12.445312 9.765625 -12.8125 C 9.390625 -13.175781 8.832031 -13.359375 8.09375 -13.359375 L 5.5625 -13.359375 Z M 5.5625 -9.203125 "/></g></g></g><g fill="#00eeff" fill-opacity="1"><g transform="translate(197.663969, 300.492044)"><g><path d="M 11.90625 -2.953125 L 5.65625 -2.953125 L 4.65625 0 L 0.375 0 L 6.4375 -16.75 L 11.171875 -16.75 L 17.21875 0 L 12.90625 0 Z M 10.859375 -6.109375 L 8.78125 -12.234375 L 6.734375 -6.109375 Z M 10.859375 -6.109375 "/></g></g></g><g fill="#00eeff" fill-opacity="1"><g transform="translate(215.24649, 300.492044)"><g><path d="M 12.390625 -16.75 L 12.390625 -13.484375 L 5.5625 -13.484375 L 5.5625 -9.953125 L 10.671875 -9.953125 L 10.671875 -6.78125 L 5.5625 -6.78125 L 5.5625 0 L 1.484375 0 L 1.484375 -16.75 Z M 12.390625 -16.75 "/></g></g></g><g fill="#00eeff" fill-opacity="1"><g transform="translate(228.296201, 300.492044)"><g><path d="M 5.5625 -16.75 L 5.5625 0 L 1.484375 0 L 1.484375 -16.75 Z M 5.5625 -16.75 "/></g></g></g><g clip-path="url(#11bbaaebc5)"><path fill="#00eeff" d="M 182.628906 114.886719 L 284.152344 114.886719 C 304.160156 114.886719 320.296875 131.464844 319.574219 151.628906 C 318.890625 170.832031 302.523438 185.777344 283.304688 185.777344 L 253.636719 185.777344 L 299.207031 231.265625 C 337.488281 224.191406 366.488281 190.660156 366.488281 150.332031 C 366.488281 104.863281 329.628906 68 284.152344 68 L 135.65625 68 L 182.628906 114.886719 " fill-opacity="1" fill-rule="nonzero"/></g><g clip-path="url(#04b7e33453)"><path fill="#00eeff" d="M 92.257812 114.890625 L 257.140625 279.554688 L 323.546875 279.554688 L 111.992188 68 L 8.5 68 L 8.5 279.554688 L 55.390625 279.554688 L 55.390625 232.667969 L 184.816406 232.667969 L 137.832031 185.773438 L 55.390625 185.773438 L 55.390625 114.890625 L 92.257812 114.890625 " fill-opacity="1" fill-rule="nonzero"/></g></svg>